<svg width="21" height="21" viewBox="0 0 21 21" fill="none" xmlns="http://www.w3.org/2000/svg">
<g clip-path="url(#clip0_233_818)">
<path d="M20.5131 10.6965C20.5131 9.83617 20.4433 9.20833 20.2922 8.55725H10.4678V12.4405H16.2345C16.1183 13.4055 15.4905 14.8589 14.0952 15.8354L14.0757 15.9654L17.182 18.3719L17.3972 18.3933C19.3737 16.5679 20.5131 13.8822 20.5131 10.6965Z" fill="#4285F4"/>
<path d="M10.4679 20.9278C13.2931 20.9278 15.6649 19.9977 17.3974 18.3932L14.0954 15.8353C13.2118 16.4516 12.0259 16.8817 10.4679 16.8817C7.70081 16.8817 5.35226 15.0564 4.51506 12.5334L4.39235 12.5439L1.16236 15.0436L1.12012 15.161C2.84083 18.5792 6.37533 20.9278 10.4679 20.9278Z" fill="#34A853"/>
<path d="M4.51547 12.5334C4.29457 11.8824 4.16672 11.1847 4.16672 10.4639C4.16672 9.74301 4.29457 9.04544 4.50385 8.39436L4.49799 8.2557L1.22752 5.71582L1.12052 5.76672C0.41133 7.18518 0.00439453 8.77805 0.00439453 10.4639C0.00439453 12.1498 0.41133 13.7425 1.12052 15.161L4.51547 12.5334Z" fill="#FBBC05"/>
<path d="M10.4679 4.04603C12.4328 4.04603 13.7582 4.89476 14.514 5.60403L17.4671 2.72062C15.6534 1.03477 13.2931 0 10.4679 0C6.37533 0 2.84083 2.34855 1.12012 5.76674L4.50344 8.39439C5.35226 5.87142 7.70081 4.04603 10.4679 4.04603Z" fill="#EB4335"/>
</g>
<defs>
<clipPath id="clip0_233_818">
<rect width="20.5275" height="21" fill="white"/>
</clipPath>
</defs>
</svg>
